<svg viewBox="0 0 24 24" xmlns="http://www.w3.org/2000/svg">
<defs>
  <linearGradient id="g2" x1="0" y1="0" x2="0" y2="1"><stop offset="0" stop-color="#ffc94d"/><stop offset=".55" stop-color="#ff9a3d"/><stop offset="1" stop-color="#ff6a8a"/></linearGradient>
  <radialGradient id="g2c" cx=".5" cy=".35" r=".65"><stop offset="0" stop-color="#ffe9b0" stop-opacity=".9"/><stop offset=".4" stop-color="#ff9a3d" stop-opacity=".5"/><stop offset="1" stop-color="#ff6a8a" stop-opacity="0"/></radialGradient>
  <filter id="f2" x="-40%" y="-40%" width="180%" height="180%"><feGaussianBlur stdDeviation=".6"/></filter>
</defs>
<ellipse cx="12" cy="13.2" rx="4.6" ry="9.6" fill="url(#g2c)" filter="url(#f2)"/>
<ellipse cx="12" cy="13.2" rx="4.6" ry="9.6" fill="none" stroke="url(#g2)" stroke-width="2.1"/>
<ellipse cx="12" cy="13.2" rx="3.6" ry="7.9" fill="none" stroke="url(#g2)" stroke-width=".5" opacity=".8"/>
<ellipse cx="12" cy="13.2" rx="1.9" ry="4.6" fill="url(#g2)"/>
<ellipse cx="12" cy="13.2" rx="1.1" ry="2.6" fill="#fff" opacity=".85"/>
<path d="M3 13.2h2.6M18.4 13.2h2.6M12 13.2V2.4M8.2 4.6l2 2M15.8 4.6l-2 2M12 3.2V1.6" stroke="#66b3ff" stroke-width=".9" stroke-linecap="round" opacity=".9"/>
<path d="M2.4 8.4c1.4-.9 2.8-.9 4.2 0M17.4 8.4c1.4-.9 2.8-.9 4.2 0" stroke="#3ae3a7" stroke-width=".6" opacity=".7"/>
<circle cx="12" cy="13.2" r="7.8" fill="none" stroke="#3ae3a7" stroke-width=".35" opacity=".4"/>
</svg>
